<mxfile host="65bd71144e">
    <diagram id="8EDnQqMaS0YbS1Q6AUWo" name="Page-1">
        <mxGraphModel dx="242" dy="212" grid="1" gridSize="10" guides="1" tooltips="1" connect="1" arrows="1" fold="1" page="1" pageScale="1" pageWidth="827" pageHeight="1169" math="0" shadow="0">
            <root>
                <mxCell id="0"/>
                <mxCell id="1" parent="0"/>
                <mxCell id="2" value="" style="shape=image;verticalLabelPosition=bottom;labelBackgroundColor=default;verticalAlign=top;aspect=fixed;imageAspect=0;image=data:image/png,iVBORw0KGgoAAAANSUhEUgAAArMAAAH+CAYAAACPyYY0AAAAAXNSR0IArs4c6QAAIABJREFUeF7t3X90VdWd//9rXASrBCtBCL9CognGZLAhA8amCFYJDLgYOkGmH5a2zMfizLdMv51FnZb2s+Az9gNrWvpD1nQ69NOP1O9Q8ctqkcwwfIUxodZQGk1hkkxpaCQoGH4YkAttEhkTlvpd7zSbdTzem5yz7zk3e9/z5J9auGefvR/nfZPX3Xeffa6L8QcBBBBAAAEEEEAAAUsFrrO033QbAQQQQAABBBBAAIEYYZYiQAABBBBAAAEEELBWgDBr7aWj4wgggAACCCCAAAKEWWoAAQQQQAABBBBAwFoBwqy1l46OI4AAAggggAACCBBmqQEEEEAAAQQQQAABawUIs9ZeOjqOAAIIIIAAAgggQJilBhBAAAEEEEAAAQSsFSDMWnvp6DgCCCCAAAIIIIAAYZYaQAABBBBAAAEEELBWgDBr7aWj4wgggAACCCCAAAKEWWoAAQQQQAABBBBAwFoBwqy1l46OI4AAAggggAACCBBmqQEEEEAAAQQQQAABawUIs9ZeOjqOAAIIIIAAAgggQJilBhBAAAEEEEAAAQSsFSDMWnvp6DgCCCCAAAIIIIAAYZYaQAABBBBAAAEEELBWgDBr7aWj4wgggAACCCCAAAKEWWoAAQQQQAABBBBAwFoBwqy1l46OI4AAAggggAACCBBmqQEEEEAAAQQQQAABawUIs9ZeOjqOAAIIIIAAAgggQJilBhBAAAEEEEAAAQSsFSDMWnvp6DgCCCCAAAIIIIAAYZYaQAABBBBAAAEEELBWgDBr7aWj4wgggAACCCCAAAKEWWoAAQQQQAABBBBAwFoBwqy1l46OI4AAAggggAACCBBmqQEEEEAAAQQQQAABawUIs9ZeOjqOAAIIIIAAAgggQJilBhBAAAEEEEAAAQSsFSDMWnvp6DgCCCCAAAIIIIAAYZYaQAABBBBAAAEEELBWgDBr7aWj4wgggAACCCCAAAKEWWoAAQQQQAABBBBAwFoBwqy1l46OI4AAAggggAACCBBmqQEEEEAAAQQQQAABawUIs9ZeOjqOAAIIIIAAAgggQJilBhBAAAEEEEAAAQSsFSDMWnvp6DgCCCCAAAIIIIAAYZYaQAABBBBAAAEEELBWgDBr+KW7cOFC8ZkzZ5ZevXp1rOFdpXsIIIAAAgggYIDAzTff/Jtbb721Ljc3t9uA7oTeBcJs6MR6J+js7Jzd0tLyg+7u7tl6LXAUAggggAACCERZYPz48QcKCwt/WFJS8lwmOxBmDby6R48effTYsWPf6u/vzzWwe3QJAQQQQAABBCwSKC8v/9zMmTOftqjLvrpKmPXFFf6L29vbHzp8+PAu95nk01X4Z+cMCCCAAAIIIGCzwJUrVwquXLlS5BxDdnZ2/OMf//if5OfnH7F5bMn6Tpg17Kru37+//uLFiwtUtwoLC7fceeedT0Rl3Ythl4PuIIAAAgggYJ2Aut+mra3tu6rzY8eOPbJs2bI51g3GQ4cJsx6Q0vWSeDw+dt++fb9X5ysrK3u8oqLiyXSdn/MggAACCCCAQOYIHDp06MmTJ0+uVSNatGjRjAkTJnRkzgj/MBLCrEFX1L3EIFOLziByuoIAAggggEDGCkRlkowwa1AJNzU1PXH8+PG/ky7deOONJ5YvX15sUPfoCgIIIIAAAghYJuBcvihLF+fOnfsly4YwbHcJs8MSpe8FzjArN3wtXry4On1n50wIIIAAAgggkGkCzqUGmZotCLMGVS1h1qCLQVcQQAABBBDIAIEoZAvCrEGFGoWCM4ibriCAAAIIIJDxAlHIFoRZg8o4CgVnEHfkuiI3Apw7d+6hM2fOrMzJyTk6Y8aMH6RyVyvtmeWnClq25Dl+/Pjne3p6Zk6cOHH/9OnTtwWxtZ/coHr69On/Jue57bbb/vftt9+e8t7XUkNvvPHG6vPnzy8eN27cLwsLC59NpSaVgTxB8fXXX//81atXb87Ly9s3EpvFB30dotaeXMugxxzme8TkvkYhWxBmDYo0USg4g7gj1ZWXXnrpR+fPn1/mfqqcrJ8qKyv7mt+NtGnvD+Vjip/0RQLcq6+++tWurq7lzuKWzdInTpy4Z+bMmWt1Qq08kfD48eNfc2/CLjepzpgx4xs6QVFC7NGjR7ecPn36UfcbMS8vb/fHPvaxr+mE2tdee23Bb37zm2+4HwMuBgUFBd+vrKx8Iuw3ftDXIWrthVnLQVva0tcoZAvCbNg/2Xy0H4WC88HBSwMSkDDS2tr6o2TN+b0hgPY+KDnSfqo38gEjUThU/67zOEv3tj7uGpKQuGDBgtv8huTm5uYvOTdzd7c7bdq0p++7777P+X0L7N69u8Mdup1tVFVVVQcxozxUv4K+DlFrT2yDHnOY7xEb+hqFbEGY9fvTMsTXR6HgQuSj6SQC7qfK5efnyyzeB17tZ09j2jPLTy5kotDpvs462/25Q+eECRMG6ubChQvX6kfn4S7u0JmoJpcsWXKzn5Ass7KNjY31qmNjxoyRLQ4/0FfdkOz1h0vQ1yFq7YVZy0Fb2tTXKGQLwqzXn1JpeF0UCi4NjJzCISDruF544YXj6q8WLlwYk0Dy/vvvx5599tlrr/S69yDtmeWnLqA7dK5cuTJ2/fXXxy5fvhx7/vnnr11nvzOTztB5xx13xObM+cOTMA8fPhx79dVXB/7bb0h2h84HH3wwdsstt8T6+/tjP/3pT6/1dcaMGV/3syzAOUMmNV5dXR277rrrYidPnoz98pe/vNau35Ds5wdK0Nchau2JddBjDvM9Yktfo5AtCLN+flKF/NooFFzIhDTvEnAvCVi+fHnsIx/5yMCrDh48eG2G1utX5bRnlp+63PX19c+ptbIS5ORDi/x59913Yzt37rxWFX5mUd0fXD7xiU/ECgsLB9pyB0Q/M/vJAoC0+6//+q+x3t7egXPI2tnq6uqHvL6pkwXvnp6e2J49e7QDvdfzy+uCvg5Ray8MwzDfI0Ffn7D6GoVsQZj185Mq5NdGoeBCJqR5l4B8tXbgwIHX1Y1f8nXurFmzYt3d3bGf//zn117tdT0l7Znlpy6g+1HYMoM6efLkWHt7+7UZVHmtn9DpDhbytf38+fMHTtnQ0KAdOt0h+a677hoIyefOnRuY8VV/5syZs6KkpOQ5r29q589POeaTn/xkbOzYsbGWlpZrH9r8ziJ7PXdY1yHo62p6e+IYdB/DujY29TUK2YIw6/enVYivj0LBhchH00kEhrtBQW7i+fSnPz3eKyDtfVBqpP1Ub4a7+Ulnvah7SUCiGvG7dEHaGK6GdEKnOyQn6qufmWmv7wf364K+DlFrTzyDHnOY7xEb+hqFbEGY1f2JFcJxUSi4ENhochiB4X7J+12bSHsfBB9pP9Wb4XYImD9//hy/W7ANFyzGjh17ZNmyZX9YSOvjz3Ah2es3Be5TDhWSdXde8DGsgZcGfR2i1l4YhmG+R4K+PmH0NQrZgjDr9ydViK+PQsGFyEfTQwhIAD158uTDZ86ceVhtXSQzddOmTdups1UR7cViJvmpS68eFqC26JIAN2XKlB+n8oAM9XAMeQiB2r9VQuxtt932A509ZlVf1SbzZ8+e/awsg1H74Uq7OqFbtase7qDWEMssb2Fh4Q+CeniElx80QV+HqLUnxkGPOcz3iOl9jUK2IMx6+cmUptdEoeDSRMlphhCQWbGPfvSjv/Kz7dFQoLSXWrkF7Se9kQD6u9/97m6dDypDjUZ+acu/pxI2E7UfhoGE5XfeeefmoPvq52oHfR2i1l6YtRy0pcl9jUK2IMz6+ckU8mujUHAhE9I8AggggAACCDgEopAtCLMGlXwUCs4gbrqCAAIIIIBAxgtEIVsQZg0q4ygUnEHcdAUBBBBAAIGMF4hCtiDMGlTGUSg4g7jpCgIIIIAAAhkvEIVsQZg1qIyjUHAGcdMVBBBAAAEEMl4gCtmCMGtQGUeh4AzipisIIIAAAghkvEAUsgVh1qAyjkLBGcRNVxBAAAEEEMh4gShkC8KsQWUchYIziJuuIIAAAgggkPECUcgWhFmDyjgKBWcQN11BAAEEEEAg4wWikC0IswaVcRQKziBuuoIAAggggEDGC0QhWxBmDSrjKBScQdx0BQEEEEAAgYwXiEK2IMwaVMZRKDiDuOkKAggggAACGS8QhWxBmDWojKNQcAZx0xUEEEAAAQQyXiAK2YIwa1AZR6HgDOKmKwgggAACCGS8QBSyBWHWoDKOQsEZxE1XEEAAAQQQyHiBKGQLwqxBZRyFgjOIm64ggAACCCCQ8QJRyBaEWYPKOAoFZxA3XUEAAQQQQCDjBaKQLQizBpVxFArOIG66ggACCCCAQMYLRCFbEGYNKuMoFJxB3HQFAQQQQACBjBeIQrYgzBpUxlEoOIO46QoCCCCAAAIZLxCFbEGYNaiMo1BwBnHTFQQQQAABBDJeIArZgjBrUBlHoeAM4qYrCCCAAAIIZLxAFLIFYdagMo5CwRnETVcQQAABBBDIeIEoZAvCrEFlHIWCM4ibriCAAAIIIJDxAlHIFoRZg8o4CgVnEDddQQABBBBAIOMFopAtCLMGlXEUCs4gbrqCAAIIIIBAxgtEIVsQZg0q4ygUnEHcdAUBBBBAAIGMF4hCtiDMGlTGUSg4g7jpCgIIIIAAAhkvEIVsQZg1qIyjUHAGcdMVBBBAAAEEMl4gCtmCMGtQGUeh4AzipisIIIAAAghkvEAUsgVh1qAyjkLBGcRNVxBAAAEEEMh4gShkC8KsQWUchYIziJuuIIAAAgggkPECUcgWhFmDyjgKBWcQN10JSaC9vX1ySUnJuZCap1kEEEAAAR8CUcgWhFkfBRH2S6NQcGEb0r4/gebm5tJXXnnlf61Zs+Yhf0d++NUNDQ0LOzo6Vpw6dWr1pk2bPP1sqa2t/WJNTc33pDUJwZ2dnZULFy78lxT7ktXY2Di7q6vrnoKCggMVFRXHUmxv4HCxcrSVtXfv3keWLl26IxaLvRdE+9JGY2Pj3fK/VVVVvwqqTdWO09pP23Jdzp8//0fxeLxk1KhRv8vNzW1PpX/iePHixTukDwsXLtwTgF9Wc3Nzibo2qv0A6mhIJrlWvb29U4I8j7PG5L9PnTq1IMgaVgOS92pfX99NAflfc9q6detzKfwsyWpvb89TH4Rl/D09PVPnz59f56deh3utvA9KS0ufC/IDd5jv2+HG4+Xfo5AtPP3C8YLFa1IXiELBpa5EC0EKyA/hffv2NXkNn+5zS9A5duzYQx0dHZ/r6em5q6CgYFtxcfEur7+A1q9f/746t/SltbX1Kyn8MhwInM8///yBvr6+SaqvOTk5v541a9YTqYSOzZs3/6eMr7i4+DuVlZVb9u/f/0w8Hr9/9OjRb65YsWK231+Me/fu/WxTU9N28crPz9+n+ia/aKXfKuAHea2d1l7braur+7ODBw/W5ubmvjh69OjLcty5c+eWy7g3bNgw1WcQzdq4ceMZ57WR9sSgtLT0KZ2ALDXzs5/97F+lzYqKir8ZM2bMaemvtCvXfd26dR/zOla/r5Nr1dzc/A9ynnvvvfcxnf47zykBs76+/gV5P2zfvv3bHR0df6v+Xepu1apVX/bbR/UByfG+ytq2bdsP5QOn/JvmdRz44Cnve3d/xENdBz/vNxn7wYMH/1mu47x582rGjx//an19/U55z02ePHm3zs+ELVu2/Ky/v398fn7+rlmzZj2t3qPyPliyZEllqtfLOfYU3rfXPnj39fWNHT16dHdeXt4rVVVVR3y+t4YsjShkC8Kszk+HkI6JQsGFREezmgK6YdY5Cyu/zHNycjqkC35/6QQdZiV0Sj9UeJUwduLEiYd7enqKdYONMpJfsvF4vKytrW1jZWXlqilTphyR4FxUVLR15cqVm7xeAgkCu3btOlJZWfnXvb290yQAqLCSwi/FgdPLeKXNRH2R8/j90CKe99xzz5fdH05kBi4vL++gn9AtY7t06dLM1atX/1VdXd2ypqamf5JAXFtb+4Wurq55fmtHxrhz5871J06cWDNv3ry/cIYh+TcJtTU1NWVBzcy7TdW1kr9va2v7am5ubuO0adP+TXfmWtqTQCO1tHHjxnOTJk16fu7cuX/34osvfi8ej1dpfHgY6LLzQ6IK/w8++OACmR0XIwmffq6jtCkfGmtra9vkvV9cXPwjZaMbZrdt2/bUm2+++aBcx7a2tr+U9+uyZcsWNzU1rZVQ/8gjj0zx84FRPiy2trZ+84EHHvhUU1PTN3p7e++UMUst6IZZ9S1WoveW9Fcc/DrKh5aurq6F6uentC1tyf/q/rxK1L8oZAvCrNffQGl4XRQKLg2MnMKHgG6YlV8Izhkp+UWsE0iCDLMSEnfs2HE20S8+CQfyi9LrjLGTUAJiS0vLE+vWrZslf79+/fp31cyO/BK+6aab3vATZl3tvacChgq3cg6/vxRVfyVkSvCRYOUuA5lR9RNmh/KUsHDixIlVa9eufcBruUnfbrrpppODM4xZmzdvbiktLf2uLNXYunXrT3XCrISBq1evfnT16tWPybWIx+N3y3WSr6vVBwY/M4RexyKvc37wEKuWlpZHu7q6Pikz9oPX0FeQVh9E5NrLhwj1gUx9+AkqzDq//RCzcePGHdWpNwl3DQ0N/ygz9vfff/8XJWzqzP6LlbM2nD9LVGj2O5Mq7WVnZ1+WunB+6JFAKyHcb3vOAF9WVrZBZlCdtSI/+/x+uFPfIiX4ZmfgvZHqt0nO/kUhWxBm/fz0Cvm1USi4kAlpPomA/JIZCsdPyHH+csjOzn5Lvsbr7++/+e233y70G0jULIm0KWsyJSBVVlZ+Tf7/DTfc0OtnVm2oYK4zk6i8VKhTX3fKeeQrSpkVVLO0S5cu/bGP4suSQCxf3TvC4MDXvzI7VVZW9k2dcOH8hZtoRlInaEhYvHTpUkVRUdF2mXGUc8haZJmJlFkvP1/VOpdWSOiUr5Cln6+++mqNzK5u2LBhsg9D9dKBpQtSh/IX2dnZF9U/SKjctGnT9UF+Xevs3xCz6FkNDQ0LJk6c+Bs/s4nqQ43MyPb3998iHz5kxl5m7nRm/VRfpd1f/OIXT0kbMvMrNSvvd7WsQb5xSCXwq9nx8vLyr8rSGb8/S9QHA5nVra6uXiRuV65c+WhFRUX7li1b6mVW1W9tqFqT9tQHWHGQWVqpC50wK/2U8C//q0KyMtb5RkX8X3nllW8Pfkj+wLr7VD5kJHoPRSFbEGY1fnqGdUgUCi4sO9odWkDdoJDsVX5CibMN9TW+Wkcps4t+bioZKmT7XSunflklmi2UUJaTk3NaNyTKL55Tp05VO9ctumYafZWg9FVCobs/cp7u7u48n+H4A+eWGZ8bb7zxd+4gpXMDmJpxvHz5crm6xurrdI0+Zu3cufN/dHZ2rpDQKQFZ2pB+Da4T1LrpzWWWtX379s0SwCsqKjbrzMR7vZA6AcZD21myBKOzs3OJBP68vLw6mTlN5UZDtb61p6dnmnzglD7Ih07nsgYP/RryJSowywcUnTAbi8WyZLmJnMTxnhj4oDL4M8XvTaED7ckaaldQH6jB6dOn12n+zBtY4+o+VvcGMDWDLNdYPizKB3q5Tp2dnQ/rzsQTZlOtZo5PWYAwmzIhDQwhIL/058+ff0DNVMkPYL+zn8malwB19OjR/y4/hOU1fmdSgrhwamY2WVs6awOH65cEBXmNnxm4odoMuj3nuXRmZofo6wd2EBjOiX+PhEDCoBeJkWsOUn5uyjcT8mFRLQ+65ZZbWidPnvyrID+IRSFbMDOrWYRhHBaFggvDjTaHF1B3pTu/XpPZSgmfumtJ1VldM4EDM0tev7Z0zhYObkskX2W/p37I+1mLKrM7MmuSTGPcuHFnggqd6hxBz86l2p64vfPOO2MSGaSya4W7vSB2nhi+ankFAggEIRCFbEGYDaJSAmojCgUXEBXN+BRQ29S47pAd+BpP1ui514B5aV6tGVWvdW8z5aUN52yhfOVWXl7+LfkKz6SwlGwbIhmfzo0fQbfndBZDWQ6QzN7PV8BD9VN9Ze13jbSXmuA1CNgkID8HV65c+fdhrc0OwiIK2YIwG0SlBNRGFAouICqa8SmQbDsambEd3CLJ18036uYRWdcqAVQ2j5c7/mXNnJ9tdIIMs2EtM1Dtyljd7Dpb8gTdnrNPcuPLsWPHHk90U4nfZQbqTnLnHrPqXH19fbfIXeyEWZ9vRF6eUQLqA718kNeZEEiEMRiOPW/15wU0CtmCMOulEtL0migUXJooOY1LQIKM885e9c86WyzJsTIDKGu73MsA/G5VFWSYTXTR1d6Qsh4tleUUMrM9ffr0Pe4btnSXBQTdnnPssnykoKCg3r3mzm+YlTblF6us53OHVpNmznmzIzBSAup9UFZW9n+CWuOa4lPUElJEIVsQZkfqXZDgvFEoOIO4I9UV+QEpA16zZs2fq6/D5GvkPXv27NfZzzDZvq0S7uRpYF43/A4xzA7czSzb/cisiWw+n8p6WfWVuzvMysy2uHpdI6yKLuj2QizmAUf34z811zSH2E2aRmBkBIIOn0G3JypRyBaE2ZGp/8h+ejKIO1JdcT7mVb4ul6+JZb/FwUd+ysMAPrDP4XA4yZYtOB/JOVwb8u/Sjvr6XmZPx4wZ81v5+jqVr7HVNkHSfqKnV3npF69BAAEEvAgEHT6Dbo8w6+Uq8ppABaLw6SlQMBrzJSCzgR0dHQvkkaLZ2dm/v+OOO+RRlsd8NTL4YgmhydZSDm5W7+mDsvORoO5+JNgjcriuXnvuvDylx/SbMoYbDP+OAALmCwQdPoNujzBrfg1lXA8Jsxl3SY0a0ODWVyq8Zu3du/eRKVOmHNEJtEOFUBm07sMJnGASvv0sDVA3Vslss/NZ56rNoqKiZ/0uBzDqAtIZBBAwTiDI8Cnr3eWJb/LzK8ibK6OQLTzNnhhXPRnaoUOHDj158uTJtTK88ePHH1i8eHF1hg6VYaVZQD3eUbZmUs967+vrmyTdSPVxlmoozn1ivQ5PPbVLXj9//vz/ezBYDzylJ9GNR8O0m/Z9Zr2Ok9chgEBmCrgmCVIapPpAHtTPZNUZwmxKl4WD/Qrs37+//uLFiwvkuMLCwi1z5879kt82eD0CiQTkhi15DKl6jOUbb7yxbO3atdVyc4+fG7ZU2+o58oNP+sraunXrT9XjTh944IFPeX1UpMxqyFpZ2ev2zTfffFAeXSlbfPX399+ayu4D0k8J7ZcuXZoq/x3GAxOoNAQQQCBoAb/fSHk5P2HWixKvCUQgHo+P3bdv3+9VY2VlZY9XVFQ8GUjjNBJ5AVnjqvZ/lQCZl5d3UJYCyA/OF1988Xt+v9LavHnzfwqq7Fqg9qqV8Hnq1Klqef671/acW4bJtl6nTp1ancp6V7kBraOjY4Xs+ShLIWQ3A+lncXHxd1atWvXlyBcCAAggoCuQNXhgoptljX6UL2FW95JznG8B5xIDOXjRokUzJkyY0OG7IQ5AIIGAhMbKyspVxcXFB3bs2HG2pqamTL7S190v1LmbgTMcy1duDQ0N/7h27doHvFwI59ZcEj7liVpeg3CC9rPWr1//ruyOoGag5TWyrZSMedOmTdf73bXByxh4DQIIZL6AWhLlWA41MGj5AH3w4MF/Lisr+6bPewXSFo4Js5lfnyM+wgsXLhSfOXNmaVtb23dVZ8aOHXtk2bJlc0a8c3QgYwTU1/kyoOzs7LcG94HN2rJlS32ihwEMN3BnmHXuOaseUuA1kAYZZtV6syVLllTKMgfnAw3kIQVlZWXf5waw4a4s/44AAkkEru2WIhMDS5cu3SFr+9va2jbqfJsUQjhOeuEIsyHVtApwV69eHRvSKYxvVsZ+/vz5pVeuXClydjY7Ozv+8Y9//E/y8/OPGD8IOmiNgCwnaGpqGri5sLKycovsEiAzCs3NzevcMw1eBqWWGWRnZ1/s7e29c3DtbEzuxpVtv9xPBkvWpnOfWdlbVtqStb3y+kRPGBuqbxJeB9cCD8wKy5jlf2Ws8iSrt99+e3pQj5z0YsRrEEAg8wTUTKyaGLj33nsf83qPgEsj0HA8lDRhNuA67OzsnN3S0vKD7u7u2QE3nTHNlZeXf27mzJlPZ8yAGIjJAkN9zTVkv50PJlA/zJ1rZ70+2jHIfWbVzKxaG+wcQLInlpl8cegbAgiYJ6BuflVhtrq6eqXO9oZqZAGG46RYhNkA6+jo0aOPHjt27Fv9/f25ATabMU3JVlyFhYU/LCkpGXjsKH8QsE3AOROaat8lGPf29k7zuQYtJjPGskfj4LPSDzQ0NCyQm9I6OzsfVrPHqfaN4xFAIJICA1sGyrKCioqKv6mpqfm+6/9/T0cl6HCcqA+EWZ0rk+CY9vb2hw4fPrzL/U8S4AI6hZXN5OTkHB0/fnzjrbfeWpebm9tt5SDoNAIBCUgYbmlpefTEiRNrZA/cwV8Yvn5BOB/bq7pVUFCwrbi4eJfX2eKAhkMzCCCQQQIqdLq3HkzlBrAwwjFhNsSic+6fKqeRPVTvvPPOJwhwIaLTNAKWCMgs7IkTJx5W+9SOGTPmt7IHbio7D6g9ZquqqmTteaKtdCzRoZsIIGCCwCuvvDI1Kyvr5rvvvrvN3R/5eXP+/Pk/8vOBOYRwnJSJmdkAKoj9UwNApAkEMlRA1rLK0IqKirbecccdtadOnVqQ4vZcGSrFsBBAYCQFdLcxTNbnwYcjdCX6sK0TjoeyIcwGUDnuJQbsnxoAKk0gkCECssZVnvZFmM2QC8owEMhQgaDD7CBT1t69ex+ZMmXKEedNZLJ0obu7O2/p0qU/DoKTMBuAohPxxhtvPLF8+fLiAJqlCQQQyBAB9dQuefrX6NGj3wximUGG0DAMBBAwREDt4FJcXPyjRF3Ky8t7xe8WXfJhvqen5y5pb968eTX5+flNhw4d+rr8LJT/H9S+2ITZAIooCogBMNEEApEXCOIGsKARn3nmmfeDbpOc3qIcAAAgAElEQVT2EEBgZAQ+85nPXKd7ZrXGVe2D7W6nqKjoWT/hU20lKKFV2jp48GCt+jCvs/f3UOOKQg7TvrBeCyIKiF4teB0CCHgT0N2ay1vr3l9FmPVuxSsRMF0g1TDb2tr6Fa9PNxzOwr1sQZ7S6PdBMcOdQ/17FHIYYdZrNfA6BBBAAAEEEIikQNBrZhOF2fLy8m/5Xarg5WIQZr0oDfOaKCAGwEQTCCCAAAIIIGCogCyD6uzsrPSzlGCooUiYbWpq+kZlZeXX5HXy30VFRdtzc3Pb5f+PGzfujDyKOwiOKOQwZmaDqBTaQAABBBBAwDABCWAvvvji9/Ly8g76fZqeGsq2bduekv9evXr1Y4YNz+ruqDWzyQah89CYZG0RZgMolSggBsBEEwgggIA1Ajt37lx/+fLlculwdnb25XHjxh0tKCg44H5GvawDTDSoRDfLyDrplpYWeZjOr/Lz8/ctXLhwj9qDUz1YI1Fbag1jsnOpY9znVG0mC3rSnt+behL1z90vWRc5ffr0OvV1soTFm2666Y2VK1duSna89HHMmDGn5eEi06ZN+zfHlk1ZW7du/akcl2gtp7Qtd8bX1NSUua+N12ITJ7k5Kchw5fXcvC4YgaNHjz7a2tp6bReGVNYOB9Oj4FthZjZ4U1pEAAEEMlpAApo8sW3y5Mm74/F4lTx+WAbsDjwqyKnXyOvldc6QqLY8ki2KcnNzX4zH4/fLa+QxxGo20Blm1ZPi1F3licKs+3zuc8r/V9siyR3kGzZsmOrevH79+vXvBxHgpB05h+qv9N85PmW5adOmD/0+lscz19bWtkk/5Jjm5uZ/yMnJ+fW6des+Jv9fBU35b/fxsuVdfX39C0GMQfXxkUcemRLUV98Z/QYxbHCvvfbagsbGxnrVLcKsxgViZlYDjUMQQAABgwVcASyrrq5uWVtb2xckiC5ZsqTSfRPLUIFN/k3CZ2Vl5V/LekS1BZIE5Orq6kXuR4RKOJRQPNRd5UOdbzAUDoRECczJ9vQMMsy6+6tmTCUctrS0PNrW1rZx06ZN17sDtXP7pt7e3mltbW1fFRdlrNpJFGYlrMvfq+CbSjnJcoUdO3acdX7ASKU9jk2vQGdn5+yGhobD6qxVVVXVt99++4H09iLcszEzG64vrSOAAAIZJ5AoLKpZwuLi4u+sWrXqy85BDxUuE4VTCU9yfKJZwCDC7Pbt27/d0dHxtxIgN2/e3CJLG9xrQsMMs86v7tWMqwqotbW1X5QlBRLs9+7d+9mmpqbt8m9dXV33yKOe+/r6bhk3blzzqlWr1q1fv/5dNZvtmpnNkn8LMnxKOM7Ozr64du3aBzKuoCMwoN27d3dcuXKlSIZaWFi4Ze7cuV/KpGETZjPpajIWBBBAIA0CicKpmr1LNGuaLMw6v0b3eoNSEGF248aN5yZNmvS8BFhZ/yszo+6v0MMMsypMyzkvXbo0dd++fU0yC52Tk3NGZowHlz5MlmArSwskqMp/S5iVNbOtra3fLC8v/+qxY8celydSqdeoS69mdJMtMZBr1dHRseDq1asflbvn58+fL7N078VisazGxsbZibaHUrPAiZZDpKHkOEWKAi+99NKPTp8+/ag0k4lPYyXMplggHI4AAghETSBZOJWQOPg44g/M3iV7vfvmIveNXvfcc8//dN+4lGqYVedUjwtVgbqysnKV48aqWJBhVta5Sujs6+sb29nZuULWB6tZU/UhQILnqFGjficBVf5dZmOPHTv22Jtvvvnghg0bBoKtLDNYsWLFbPnKX2qurKxsw+jRo7vdYVaF4ERLPuQ4GZv0Sf5bPU5VZnh7e3vvlLW9iZZwDNdm1N4Dto23vb39ocOHD+9S/V60aNGMCRMmdNg2jmT9JcxmypVkHAgggECaBIKemVVLE1SYla/Sk62/TTXMqhlGFQSFzH1jlQp8Qdw85b4B7KabbjpZUFBQ75gNvRacL126NFMCbVdX10IJvzITK32RcOmcpVX+skvBqVOnFrjDrJptTrQOd3C8pY4PCVkNDQ0L4vF4yeDyhmu7SDjLSc32ukN/mkqO06QoEI/Hxx44cOD1/v7+XGlq2rRpT993332fS7FZYw4nzBpzKegIAgggYIdAkGtmE83mquCUaGYxlTCrZkFlVjInJ+farFRPT0+xzFA6t7AKcmbWyw1rcuXVjXDxeLxMtj6TfuXn5++SbbucYVZ8ZA2tLM1w/r2qnjBmUZ3rd8N4SpUdlW93L51LDbKzs+MLFiy4LTc3t9vuUf2h94TZTLiKjAEBBBBIo4A7zMqMqu5uBmqm1LlzQVhhVgUy9y4JaqmB8+a1dIZZMZDlBLJTgayjPX/+/B/JtlpySdXscKLQKv+e6O/DmEV13jTn3nUhjaXHqVIQuHDhQvELL7xwXDWRSTeCEWZTKAwORQABBKIo4NxnVs1qymxnaWnpd53rTv3uMyszmPIQBtkuS1zVTKmXfWad1yHZGl25I7+/v/9WWYPqvm7uf1PrSp0zuHKMPPQg2QMOEtWCl5lkFUgde8gO7EYg7Tl3OXAvJ0gWZtUMdKKdJXTrdcuWLT/r7+8fH8RWX7p94LjUBfbv319/8eLFBaql+fPnz8nPzz+Sessj2wJhdmT9OTsCCCBgnYD7CWDFxcW73PvByqDS+QQwJ6Lqn/NGpuEe7aoCs7rpLFnf/YZZaWe4Y2QmtbW19SvOp5HJTOjbb79deP/9939RtihT/XPfnJXs75PdjKdZbAPherjlEpptc1gaBdyzs+PHjz+wePHi6jR2IZRTEWZDYaVRBBBAAAEERk5AzfaqXRtS6Ym6oSzZ7giptM2x6RdwPsxKzl5eXv65mTNnPp3+ngR3RsJscJa0hAACCCCAgDECsjRAtttK9Lher51U62+DXLLg9dy8LhwB2dngpZde+g/1EIVMuBmMMBtOrdAqAggggAACIyoQRBANIhCPKAInTyjg3nfW9pvBCLMUOgIIIIAAAgggEDGBTLoZjDAbseJluAgggAACCCCAQCbdDEaYpZ4RQAABBBBAAIEICmTKzWCE2QgWL0NGAAEEEEAAAQQy5WYwwiy1jAACCCCAAAIIRFQgE24GI8xGtHgZNgIIIIAAAgggIAK23wxGmKWOEUAAAQQQQACBCAu4bwYbO3bskWXLls2xhYQwa8uVop8IIIAAAggggEBIAu6bwcrKyh6vqKh4MqTTBdosYTZQThpDAAEEEEAAAQTsFNi9e3eHjU8GI8zaWW/0GgEEEDBFIKuxsXG2szM33HBDb0VFxbGgOihPsnK3VVVV9ash2v9Qn+S148aNO1NSUnIugH59qP0A2441NzeX9vT0TI3H4yWJ+jpq1Kjf5ebmtldVVR2JxWLvBTAemkBgQOC1115b0NjYWK84bHkyGGGWAkYAAQQQ0BZQj0x1NjB58uTda9aseUi7UdeB69evf9/d1qZNm5L+/krUJzl+9OjRb27YsGFqqgEwUfsVFRV/U1NT8z3dMdfV1f1ZZ2fnkjfffPPBvr6+SV7byc3NfTEvL+/ns2bNejqgoO711LwuQwXq6+uf6+rqWi7Dy87Oji9YsOC23NzcbpOHS5g1+erQNwQQQMBwAZvCrFCWlZVtWLly5aZUWd0BWzPMZtXV1S1raWl5oqen565U+1RcXPydysrKLYTaVCWjfXxnZ+fshoaGw0phxowZX6+srHzCZBXCrMlXh74hgAAChgvYFmaFc8mSJZXDLFMYVj3VMCtLCRoaGv4xHo/fP+zJfL5AM1j7PAsvz2QB51ZdMjv76U9/erzJ4yXMmnx16BsCCCBguEAawmzW+vXr33Uz6CwzUG3IV/Nr1659IBXaVMJsQ0PDwoMHD/7zUMsJZElEbm5u40033XQyJyfntOprV1fXvL6+vluGC8EyS7tq1ap1qS6pSMWIY+0VcK+dnTNnzoqSkpLnTB0RYdbUK0O/EEAAAQsEwg6zyda/phJmhTXV2UvdMJtsPOpSFxQUbCstLX1quJnj9vb2yZ2dnZVNTU3/lCwUB7122YJypIsBCuzZs+dwd3f3wM2dpt8IRpgN8MLTFAIIIBA1AVvDrMx8rlixYrbu+lLNMJu1cePGM4nCp/Rn3rx5fzF//vw6PzUkofbFF1/83rlz5wZu2HH/STW0++kLr80sgUOHDj158uTJtTIq0x+iQJjNrNpjNAgggEBaBcIOszKYIHYzkFDX3Nz8D06cVGYudcLs1q1bn0sUOqUf999//xd1g7WMqba29ovu8amxBrFGOK1FxcmMEGhvb3/o8OHDu1RnFi1aNGPChAkdRnTO1QnCrIlXhT4hgAAClgjYEmY3bdp0/ebNm1vcuwZUV1cv8jsbmihgDzcDmmx5gSwrWL169WNBXO5k50gltAfRL9qwUyAej4/dt2/f71Xvq6qqqm+//fYDJo6GMGviVaFPCCCAgCUCFoXZ6xL1VXfvWb8zs8lmZR955JEpqczIusskXeexpDzpZooCP/nJTy729/fnSjMmP96WMJviheZwBBBAIMoCNoVZuU7btm176tSpU6ud10xn71k/YVbWte7YseOsu04Gdxz4cpD1k2x2NoxzBdlv2jJTwLlFl8n7zRJmzawfeoUAAghYIRDG07DcAw9izaxj94OEN2H5XVfqJ8zu3bv3s01NTdvd4wp6Vla1nyiw5+Tk/HrdunUfs6Ko6KQxAs4wa/KOBoRZY0qGjiCAAAL2CVgYZmOJwqXfvWf9hNlE4TLMmdJkM8FhhWf7qpYeexVw7mgwfvz4A4sXL672emw6X0eYTac250IAAQQyTMDGMCuXINHa0uFu4nJeOj9hdvPmzf8Z1I1nXssn0TnnzZtXs3Dhwn/x2gavQ6CpqemJ48eP/51IEGYtgKBkEUAAAQT8C9gaZuVxsrW1tW3OEfvZe9ZPmE20TCLsWdJEs8F+wrr/SuCITBQgzA5eVVsgMrEIGRMCCCAQtkA6wuyWLVt+5n58q98ngCV6faK9Wb1uY+U1zOo8wSyIa5ZobGEubQiiz7RhnoAtGY5lBubVDj1CAAEErBFIR5hNtCQgiDAbi8WydPeeTSXMeg3MqRRBonXB6ThvKn3mWPMECLPMzJpXlfQIAQQQCFggHWE2rJlZodDde9b0MJuOLdMCLiWaM1CAMEuYNbAs6RICCCAQrEA6wmzAW3N9CEBn71nCbLB1RGtmChBmCbNmVia9QgABBAIUyIQwK8sNNm7ceKavr2+Sk6ampqasoqLiWCIuwmyARURTxgoQZgmzxhYnHUMAAQSCEsiQMOt779lUwqzfPW11rhVrZnXUOMYtQJglzPKuQAABBDJeIFPCrFyoRDeaVVZWrlq6dOmP3RfSa5hNtAWYtDXUDWxBFE2i3QzYmisI2Wi1QZglzEar4hktAghEUiBRmC0oKNi2evXqx4IA0QmDifrkJTz62XvWa5gVg0RrfodawhCEG/vMBqFIG4RZwizvAgQQQCDjBRIFxyC/Rq+rq/uzgwcP1johc3Jyfr1u3bqPJcPVDbPSXqIZzUTh3E+YHYmncSU655IlSyqrqqp+lfFFyQADEyDMEmYDKyYaQgABBEwVCPuhADoPNkglzHrde9ZPmN2+ffu3Ozo6/tZ5DcN8gEF7e/vkHTt2nHXXzKZNm66PxWLvmVpL9Ms8AcIsYda8qqRHCCCAQMACyYJTUF+jJ1rHOtzm/ymG2YR7zw7OBs9SYdBPmE00uyyXIaxwmegDQJCz5QGXEM0ZLECYJcwaXJ50DQEEEAhOINGa0CBuNkoWlIdrO9UwKzLD7T3rJ8zqjkP3CiVaYjCcme65OC6zBQizhNnMrnBGhwACCAwKJHpC1+jRo9/csGHD1FS+1k709byccri1n0GE2eH2nvUTZqXPicYiRitWrJhdUlJyLqhiSjQrG8S1CKp/tGOXAGGWMGtXxdJbBBBAQFMgUYCSpubNm1ezcOHCf9FpNtlsprQ13M4EAYXZIfeedc9+DjfzmWxXhsGv/6tTCf3KN9k5wlyfq3NtOcYeAcIsYdaeaqWnCCCAQAoCyYKnrDNdtmzZYo2Zx6xt27b98NSpU6vd3fISzIIKs3LuZHvPnj59+k/PnTu3XPVvuDArr0u0dEH+Xpyqq6tXJnvamJdLk+ghCXJcGLO/XvrDazJDgDBLmM2MSmYUCCCAgAeBocLUAw888CmvW0JJMN6/f/8z8Xj8/kSnfeSRR6YMF46DDLPJ9p7Nzs5+q6en5y4/YTbZ0gXVRrIHNAzDnzT4y3HV1dWL5s+fX+fhEvISBD4kQJglzPK2QAABBCIlkGgW0xXUdgz1dbrc9d/U1PRPfX19kxLBeZn9lOOCDLPSXrJlFM4+ptI3Zzuyp21xcfEuDwE0q66ubllLS8sTzlDtbKusrGzDypUrN0WqCBlsoAKEWcJsoAVFYwgggIDpAjKrumvXriPJwqj0X8LauHHjjjrH0tPTM62zs/PhoY7zsrxAtRl0mE2296xOmJVjGhoaFh48ePCfhxqvLA/Izc1tvOWWW1pHjx7drc4lVm+//Xahc4lDorogyJr+brGjf4RZwqwdlUovEUAAgQAFhptd1TmV38fjhhBmE8726oZZOU6WLzz//PMHhgq0OlZyTCo33umek+MyU4AwS5jNzMpmVAgggMAwAhLUGhoa/jHZulevgDI7WVlZ+dd+d0QII8xKn5PdwCX/5nWZgWvsWbW1tV9oa2v7ahChVmavKysrtwy3ptirP69DgDBLmOVdgAACCERaQL5Ob2tr+8vhvhJ3I8nd/aWlpd9dunTpkGtsk+GGFWaHuoFLM8yqIQyE2jfeeGOZ3w8AYpWXl1dHiI30Wy20wRNmCbOhFRcNI4AAApYJZDU0NCyIx+Mlly5dmtnf33+Lu/95eXkHx4wZczo/P78pgJnFrMbGxtnOc3jdTWE4V5l1fuedd8a4Xzdu3LgzAfRbmh24sau3t3daX1/f2MuXL5c7z5WdnX1Z1hyPGjXqd1OmTDmSynZew42Vf0eAMEuY5V2AAAIIIIAAAghYK0CYJcxaW7x0HAEEEEAAAQQQIMwSZnkXIIAAAggggAAC1goQZgmz1hYvHUcAAQQQQAABBAizhFneBQgggAACCCCAgLUChFnCrLXFS8cRQAABBBBAAAHCLGGWdwECCCCAAAIIIGCtAGGWMGtt8dJxBBBAAAEEEECAMEuY5V2AAAIIIIAAAghYK0CYJcxaW7x0HAEEEEAAAQQQIMwSZnkXIIAAAggggAAC1goQZgmz1hYvHUcAAQQQQAABBAizhFneBQgggAACCCCAgLUChFnCrLXFS8cRQAABBBBAAAHCLGGWdwECCCCAAAIIIGCtAGGWMGtt8dJxBBBAAAEEEECAMEuY5V2AAAIIIIAAAghYK0CYJcxaW7x0HAEEEEAAAQQQIMwSZnkXIIAAAggggAAC1goQZgcvXXNz85fa2tq+q67kkiVLbs7Nze229srScQQQQAABBBBAIAIChNnBi3zhwoXiF1544bi65oWFhVvmzp37pQjUAENEAAEEEEAAAQSsFSDMOi7dnj17Dnd3d89Wf1VWVvb41KlT906YMKHD2itMxxFAAAEEEEAAgQwWIMw6Lm5nZ+fsl19++d/7+/tzndf8xhtvPDFx4sS9o0aNiuyyAxk7wT6DfxIwNAQQQAABBCwVIMy6LtzRo0cfbW1t/ZGl1zP0bo8dO/bIrFmzPp+fn38k9JNxAgQQQAABBBBAYBgBwmwCoPb29odOnjz5VxcvXlxABX1YIDs7O15aWvqVmTNnPo0PAggggAACCCAwkgKE2SH04/H42LfeemvhxYsXq3p6emaO5IUa6XMnCvZz5sxZUVJS8txI943zI4AAAggggEB0BQiz0b32vkYuwf63v/3tEydPnlyrDhw/fvyBxYsXV/tqiBcjgAACCCCAAAIBChBmA8SMQlPsxxuFq8wYEUAAAQQQsEeAMGvPtTKip+79eFlqYMRloRMIIIAAAghEVoAwG9lLrz/w3bt3d1y5cqVIWuDhEvqOHIkAAggggAACqQsQZlM3jFwLhw4delKtnWXdbOQuPwNGAAEEEEDAKAHCrFGXw47O2FI0dmjSSwQQQAABBBBIRcCWXHJdKoPk2GAFbCmaYEdNawgggAACCCBgooAtuYQwa1D12FI0BpHRFQQQQAABBBAIScCWXEKYDakAdJq1pWh0xsYxCCCAAAIIIGCXgC25hDBrUF3ZUjQGkdEVBBBAAAEEEAhJwJZcQpgNqQB0mrWlaHTGxjEIIIAAAgggYJeALbmEMGtQXdlSNAaR0RUEEEAAAQQQCEnAllxCmA2pAHSataVodMbGMQgggAACCCBgl4AtuYQwa1Bd2VI0BpHRFQQQQAABBBAIScCWXEKYDakAdJq1pWh0xsYxCCCAAAIIIGCXgC25hDBrUF3ZUjQGkdEVBBBAAAEEEAhJwJZcQpgNqQB0mrWlaHTGxjEIIIAAAgggYJeALbmEMGtQXdlSNAaR0RUEEEAAAQQQCEnAllxCmA2pAHSataVodMbGMQgggAACCCBgl4AtuYQwa1Bd2VI0BpHRFQQQQAABBBAIScCWXEKYDakAdJq1pWh0xsYxCCCAAAIIIGCXgC25hDBrUF3ZUjQGkdEVBBBAAAEEEAhJwJZcQpgNqQB0mrWlaHTGxjEIIIAAAgggYJeALbmEMGtQXdlSNAaR0RUEEEAAAQQQCEnAllxCmA2pAHSataVodMbGMQgggAACCCBgl4AtuYQwa1Bd2VI0BpHRFQQQQAABBBAIScCWXEKYDakAdJq1pWh0xsYxCCCAAAIIIGCXgC25hDBrUF3ZUjQGkdEVBBBAAAEEEAhJwJZcQpgNqQB0mrWlaHTGxjEIIIAAAgggYJeALbmEMGtQXdlSNAaR0RUEEEAAAQQQCEnAllxCmA2pAHSataVodMbGMQgggAACCCBgl4AtuYQwa1Bd2VI0BpHRFQQQQAABBBAIScCWXEKYDakAdJq1pWh0xsYxCCCAAAIIIGCXgC25hDBrUF3ZUjQGkdEVBBBAAAEEEAhJwJZcQpgNqQB0mrWlaHTGxjEIIIAAAgggYJeALbmEMGtQXdlSNAaR0RUEEEAAAQQQCEnAllxCmA2pAHSataVodMbGMQgggAACCCBgl4AtuYQwa1Bd2VI0BpHRFQQQQAABBBAIScCWXEKYDakAdJq1pWh0xsYxCCCAAAIIIGCXgC25hDBrUF3ZUjQGkdEVBBBAAAEEEAhJwJZcQpgNqQB0mrWlaHTGxjEIIIAAAgggYJeALbmEMGtQXdlSNAaR0RUEEEAAAQQQCEnAllxCmA2pAHSataVodMbGMQgggAACCCBgl4AtuYQwa1Bd2VI0BpHRFQQQQAABBBAIScCWXEKYDakAdJq1pWh0xsYxCCCAAAIIIGCXgC25hDBrUF3ZUjQGkdEVBBBAAAEEEAhJwJZcQpgNqQB0mrWlaHTGxjEIIIAAAgggYJeALbmEMGtQXdlSNAaR0RUEEEAAAQQQCEnAllxCmA2pAHSataVodMbGMQgggAACCCBgl4AtuYQwa1Bd2VI0BpHRFQQQQAABBBAIScCWXEKYDakAdJq1pWh0xsYxCCCAAAIIIGCXgC25hDBrUF3ZUjQGkdEVBBBAAAEEEAhJwJZcQpgNqQB0mrWlaHTGxjEIIIAAAgggYJeALbmEMGtQXdlSNAaR0RUEEEAAAQQQCEnAllxCmA2pAHSataVodMbGMQgggAACCCBgl4AtuYQwa1Bd2VI0BpHRFQQQQAABBBAIScCWXEKYDakAdJq1pWh0xsYxCCCAAAIIIGCXgC25hDBrUF3ZUjQGkdEVBBBAAAEEEAhJwJZcQpgNqQB0mrWlaHTGxjEIIIAAAgggYJeALbmEMGtQXdlSNAaR0RUEEEAAAQQQCEnAllxCmA2pAHSataVodMbGMQgggAACCCBgl4AtuYQwa1Bd2VI0BpHRFQQQQAABBBAIScCWXEKYDakAdJq1pWh0xsYxCCCAAAIIIGCXgC25hDBrUF3ZUjQGkdEVBBBAAAEEEAhJwJZcQpgNqQB0mrWlaHTGxjEIIIAAAgggYJeALbmEMGtQXdlSNAaR0RUEEEAAAQQQCEnAllxCmA2pAHSataVodMbGMQgggAACCCBgl4AtuYQwa1Bd2VI0BpHRFQQQQAABBBAIScCWXEKYDakAdJq1pWh0xsYxCCCAAAIIIGCXgC25hDBrUF3ZUjQGkdEVBBBAAAEEEAhJwJZcQpgNqQB0mrWlaHTGxjEIIIAAAgggYJeALbmEMGtQXdlSNAaR0RUEEEAAAQQQCEnAllxCmA2pAHSataVodMbGMQgggAACCCBgl4AtuYQwa1Bd2VI0BpHRFQQQQAABBBAIScCWXEKYDakAdJq1pWh0xsYxCCCAAAIIIGCXgC25hDBrUF3ZUjQGkdEVBBBAAAEEEAhJwJZcQpgNqQB0mrWlaHTGxjEIIIAAAgggYJeALbmEMGtQXdlSNAaR0RUEEEAAAQQQCEnAllxCmA2pAHSataVodMbGMQgggAACCCBgl4AtuYQwa1Bd2VI0BpHRFQQQQAABBBAIScCWXEKYDakAdJq1pWh0xsYxCCCAAAIIIGCXgC25hDBrUF3ZUjQGkdEVBBBAAAEEEAhJwJZcQpgNqQB0mrWlaHTGxjEIIIAAAgggYJeALbmEMGtQXdlSNAaR0RUEEEAAAQQQCEnAllxCmA2pAHSataVodMbGMQgggAACCCBgl4AtuYQwa1Bd2VI0BpHRFQQQQAABBBAIScCWXEKYDakAdJq1pWh0xsYxCCCAAAIIIGCXgC25hDBrUF3ZUjQGkdEVBBBAAAEEEAhJwJZcQpgNqQB0mrWlaHTGxjEIIIAAAgggYJeALbmEMGtQXdlSNAaR0RUEEEAAAQQQCEnAllxCmA2pAHSataVodMbGMQgggAACCCBgl4AtuYQwa5Dw24QAACAASURBVFBd2VI0BpHRFQQQQAABBBAIScCWXEKYDakAdJq1pWh0xsYxCCCAAAIIIGCXgC25hDBrUF3ZUjQGkdEVBBBAAAEEEAhJwJZcQpgNqQB0mrWlaHTGxjEIIIAAAgggYJeALbmEMGtQXdlSNAaR0RUEEEAAAQQQCEnAllxCmA2pAHSataVodMbGMQgggAACCCBgl4AtuYQwa1Bd2VI0BpHRFQQQQAABBBAIScCWXEKYDakAdJq1pWh0xsYxCCCAAAIIIGCXgC25hDBrUF3ZUjQGkdEVBBBAAAEEEAhJwJZcQpgNqQB0mrWlaHTGxjEIIIAAAgggYJeALbmEMGtQXdlSNAaR0RUEEEAAAQQQCEnAllxCmA2pAHSataVodMbGMQgggAACCCBgl4AtuYQwa1Bd2VI0BpHRFQQQQAABBBAIScCWXEKYDakAdJq1pWh0xsYxCCCAAAIIIGCXgC25hDBrUF3ZUjQGkdEVBBBAAAEEEAhJwJZcQpgNqQB0mrWlaHTGxjEIIIAAAgggYJeALbmEMGtQXdlSNAaR0RUEEEAAAQQQCEnAllxCmA2pAHSataVodMbGMQgggAACCCBgl4AtuYQwa1Bd2VI0BpHRFQQQQAABBBAIScCWXEKYDakAdJq1pWh0xsYxCCCAAAIIIGCXgC25hDBrUF3ZUjQGkdEVBBBAAAEEEAhJwJZcQpgNqQB0mrWlaHTGxjEIIIAAAgggYJeALbmEMGtQXdlSNAaR0RUEEEAAAQQQCEnAllxCmA2pAHSataVodMbGMQgggAACCCBgl4AtuYQwa1Bd2VI0BpHRFQQQQAABBBAIScCWXEKYDakAdJq1pWh0xsYxCCCAAAIIIGCXgC25hDBrUF3ZUjQGkdEVBBBAAAEEEAhJwJZcQpgNqQB0mrWlaHTGxjEIIIAAAgggYJeALbmEMGtQXdlSNAaR0RUEEEAAAQQQCEnAllxCmA2pAHSataVodMbGMQgggAACCCBgl4AtuYQwa1Bd2VI0BpHRFQQQQAABBBAIScCWXEKYDakAdJq1pWh0xsYxCCCAAAIIIGCXgC25hDBrUF3ZUjQGkdEVBBBAAAEEEAhJwJZcQpgNqQB0mrWlaHTGxjEIIIAAAgggYJeALbmEMGtQXdlSNAaR0RUEEEAAAQQQCEnAllxCmA2pAHSataVodMbGMQgggAACCCBgl4AtuYQwa1Bd2VI0BpHRFQQQQAABBBAIScCWXEKYDakAdJq1pWh0xsYxCCCAAAIIIGCXgC25hDBrUF3ZUjQGkdEVBBBAAAEEEAhJwJZcQpgNqQB0mrWlaHTGxjEIIIAAAgggYJeALbmEMGtQXdlSNAaR0RUEEEAAAQQQCEnAllxCmA2pAHSataVodMbGMQgggAACCCBgl4AtuYQwa1Bd2VI0BpHRFQQQQAABBBAIScCWXEKYDakAdJq1pWh0xsYxCCCAAAIIIGCXgC25hDBrUF3ZUjQGkdEVBBBAAAEEEAhJwJZcQpgNqQB0mrWlaHTGxjEIIIAAAgggYJeALbmEMGtQXdlSNAaR0RUEEEAAAQQQCEnAllxCmA2pAHSataVodMbGMQgggAACCCBgl4AtuYQwa1Bd2VI0BpHRFQQQQAABBBAIScCWXEKYDakAdJq1pWh0xsYxCCCAAAIIIGCXgC25hDBrUF3ZUjQGkdEVBBBAAAEEEAhJwJZcQpgNqQB0mrWlaHTGxjEIIIAAAgggYJeALbmEMGtQXdlSNAaR0RUEEEAAAQQQCEnAllxCmA2pAHSataVodMbGMQgggAACCCBgl4AtuYQwa1Bd2VI0BpHRFQQQQAABBBAIScCWXEKYDakAdJq1pWh0xsYxCCCAAAIIIGCXgC25hDBrUF3ZUjQGkdEVBBBAAAEEEAhJwJZcQpgNqQB0mrWlaHTGxjEIIBCMQHt7++Rjx449pFobM2bM6fz8/KaSkpJzic6gXl9QUHCgoqLimHpNbW3tF+XYhQsX/kui49S/S9vO8zlf6zxeXu/8t7y8vFeqqqp+FcyoaSUIgYaGhoXxeLzEXQvSdl1d3Z/19vZOq6mp+X4sFntP/k7VTmlp6XPu+lLXu6am5nvuvjna+tC/uV8r5+jo6FiQm5vbPlS9qL7r1lVjY+PdXV1d9yRyVGNQr3GfQ8aqe94grttItmFLLiHMjmSVuM5tS9EYREZXEIicgPzC3bdvX5N74Dk5Ob+urq5eqQKrhISmpqa1HR0df6teO3ny5N333HPP/5TXbNmy5Wf9/f3j161b9zF3W83NzaW1tbVtFRUVfyO/xBOdT46R9tasWTMQrNevX/9+ooshbSQKPJG7cAYMePPmzf/Z09NzV0FBwbbVq1c/5uzS1q1bnzt37txy5/VStbZkyZJKZ9B01uC8efNq3B+IVFubNm1KmjES1afU8D333PPl+fPn16m+STBuaWl5Qvqt/k5et27dulkqdHuhlUDa3Nz8D4leq/qpXjPY/rX3hdR2VOvYllxCmPXyLkjTa2wpmjRxcBoEEEgg4A4Yamarqalpe3Fx8XdWrVr1ZTlMAkU8Hq8qKyv7psy21dbWfqGtre2r2dnZb0mA3bZt21OnTp1anShwqHNIUBkzZsxZCbPuQOPumvzCd4ZbaaOpqekb8Xj8/kceeWRKspljLnJ6BGRms76+/oXc3NwX5Zps2rTpemcYVAF09OjRb27YsGGq/FuyMLt9+/Zvd3Z2Piy1lJub+6tkwXioMCttyAetwZpdV1dXt6ypqemf+vr6Jqm+qQ9VEi5nzZr1xPjx41+tr6/fKcG2rKxsw8qVKzf51VNjShROnYG3urp6kQrVhNnjfyfO48ePP7B48eJqv+bpeD1hNh3KHs9x6NChJ0+ePLnW9KLxOBxehgACIQgkCxgy0+oMju5wqQKuzL5JMJWvXGWmSgVNafeGG27olVnbvXv3flbCsbxOjtMJs3KczKodPHiwtrKyctXSpUt/HAIHTXoUkA8vb7755oMPPvjgApl1d8+oSpjt6ekplqCo/i1JrWVt3LjxTH5+/rPZ2dm/b2tr2+j+sOJlZlbqtbe3984NGzZMVkNQYVLVi7MOHTPDWfLBTPdrfy9hVsJzTk5Oh/NbB2ZmCbMe32q8bP/+/fUXL15cIBKFhYVb5s6d+yVUEEAAAadAsjArXyHL62TWVb3GPXvlDAujR4/ukaApgXXcuHFnduzYcVZ9vapeJzNkjY2Ns3XDrJr9rampKXOu1+WKpl0ga/369e+qmXuplezs7Itr1659QPVEAqj6bwm1zjpyzsqrDygyc5mTk3NGgrH7w4qHMDvQH+dMvvPDjwqOavbWPYucip6XMCthXr03JEQzM8vMbCo1F6lj4/H42H379v1eDbqsrOzxioqKJyOFwGARQGBYAfXLWAKE3DTT29s75cSJEw871zuqMOqefVNfNTvXwspr5KTqK16ZZTt06NDXZRZPZs2SrdGVY5yzVfILX76izs3NbZR/kyUO8pVxovWZww6SFwQqoGY41VfnO3fuXO+eUVVhtqys7P/IcoRkS0zU8hU1o+r8EOUMxlKPyZYZJAuU6u9VyFVrfJ1rWtU5hrp5cSg8L2FWwrPMPk+aNOl5WUJBmCXMBvqGzOTGnEsMZJyLFi2aMWHChI5MHjNjQwAB/wKJwqWsg8zLy/v5ypUr/17WOqrw4v5qVP29mklTv6QvXbo0U3oiAbaysvKvJRzL/5evWdX5ZFYvJyfntLPHzq96nWFWBVnnukP/I+WIoATUV/oPPPDApwY/aJTIMhLnzL0Ks3LN1cxtZWXl15yz8rI+W2bw5QNKaWnpU9LWsWPHHpO1187Z9+FmZp01pdZ4S1vubxTc7ThvMnTP6nq18hhmr1MfCOXDnYyZZQYsM/BaY5F83YULF4rPnDmztK2t7bsKYOzYsUeWLVs2J5IgDBoBBIYUcM/MyhIB981VycKCmpFTXxtLaMnPz9914sSJNeXl5V89f/78vaNGjfpdV1fXQvl7ucEm2bIGdyeda3TVMczKjnwxq5uoEvXEede+M8yqpQQS4GRdtaoXVT+J2nIH46FmZuV4qRf5EOZc6uD+sKUCpfvmQ2df/Qp7DbOxWOza0gy5UY0wS5j1W2uhvV4Fx6tXr44N7SQeG5Y+nD9/fumVK1eKnIdkZ2fHP/7xj/9Jfn7+EY9N8TIEEIiQgMdwOfCL2B0W1E1iag2i+spYlgPIzNrZs2dnHzt27HG5CUj98vZ4voFw4pwtU+sdmZ0d2eJUAVQtG1C96ejoWCEhTV0fd0DcuHHjwL7FUhvODz/yd/fee+8HtvX6xS9+8VR/f/+taunBcDOz0oa079y5QP5O1Yw6n1oW4177naYwe60/0jfCLGF2ZN/JsViss7NzdktLyw+6u7tnj3hnhulAeXn552bOnPm06f2kfwggMDICXsOlCjFqWyO1V6dz+y7na+SGH+csngoU7plg96irqqrkg/d7CXZPGLjrXV6vtnoaGbFon1VCo9qOzSmhlgyoenAHROc2VVILV69e/aispU20JZZ7Ta4Ks2o3DOd5Vb2o2V9ZZy3fCpw+ffpPZTbXWZ8yO7p58+YW+XAlH5SKioqejcfjZfJNgqzNVrsNeLnCMt5Lly5NlYdGqG3siouLd8mxaqcEx42PAzs9KSPCLGtmvdRYqK85evToo8eOHftWf39/bqgnSrFx2b+tsLDwhyUlJdfuKE2xSQ5HAIEMFPAaZmXoElYvX75cLv+dICjEVAhxBgg1Y+bcsivZQxOkXRV6E20FpmbWdNc3ZuDlS+uQnDf8JXpwhXOmfuvWrT+VzjkC4sCHETUzq2ZyE+1M4VxLKzdMqTCbaLDunRHU+mypz8FvEmQf04EnkKk/zgcnyGumT5++J9FTzIbC9fPQBOeNa2q2mJlZZmbT+uZ1ffJ86PDhwwOfvJx/JDiOWKccJ87JyTk6fvz4xltvvbUuNze324Q+0QcEEEAAAQRMFJDQzMM30ntlbHmYU0Y/NMG5b6tcftm79c4773yC4JjeNwNnQwABBBBAAAH7BAizI3zN2Ld1hC8Ap0cAAQQQQAABqwUIsyN8+drb2z+wxIB9W0f4gnB6BBBAAAEEELBKgDA7wpfLeQFuvPHGE8uXLy8e4S5xegQQQAABBBBAwBoBwuwIXypbLsAIM3F6BBBAAAEEEEAgoYAtWSpjbwCz5QLw/kEAAQQQQCAdAs8888z76TgP59AX+MxnPmNULrMlSxmFpn/5P3ykLRcgyDHTFgII6AnIftRXrlzJ1zta/yh5EmBPT89M/RaideSVK1cK3E9NtEXAhJBCmDW/WkyoE6eSLVmKMGt+bdNDBBAIWYBf8iED03zMtJDCJUHAiwBh1otSiK+x5QKESEDTCCDgUUDC7Eg9TGXcuHG/9NjNyL9s1KhR3TfffPOvbYP46Ec/+iv2N7ftqtFfEbAlSzEzS70igAACCCCAAAIIfEiAMDvCRWHLBRhhJk6PAAIIIIAAAggkFLAlSzEzSwEjgAACCCCAAAIIMDNrWg3Y8mnCNDf6gwACCCCAAAIIiIAtWYqZWeoVAQQQQAABBBBAgJlZ02rAlk8TprnRHwQQQAABBBBAgJlZA2qAMGvARaALCCCAAAIIIGCtgC1ZimUG1pYYHUcAAQSiI9De3j75/PnzfzRx4sTflJSUnEt15EG3l2p/OB4BEwUIsyN8VWy5ACPMxOkRQMAiAQlgjiCXtXfv3keKi4sP+Al3tbW1X7x06dLM4uLiXfPnz6+zYPhZW7ZsqY/H4/ervubm5r5YVlb2/YULF/6LRv+Dbk+jCxyCgB0CtmQpZmbtqCd6iQACEReQENrc3PwPmzZtuq65ubn0+eefP9DX1zdJWObNm1fjNdg1Njbe3dra+pVz584tz8nJ+XVpael3ly5duiMWi71nIvH27du/3dHR8bfFxcXfqays3NLZ2VnZ0tLyRH9//60bNmyY6rffQbdnohl9QiAoAcJsUJKa7dhyATSHx2EIIBAxgfXr179fUFCwbfXq1Y/t3Llz/eXLl8vXrFnz5zt37vwfb7/99nT5ez8kMst77Nixhzo6Oj7X09Nzl4RFma2tqqr6lZ92wn7txo0bz82bN+8v3LPIW7dufa6oqOhZryFe9TPo9sIeP+0jMJICtmQpZmZHsko4NwIIIOBBQGZia2tr2x555JEpsqRg8+bN/zlr1qwnJMipmdY1a9Y85KGphC+RNjo6OlbIDGhlZeWqpUuX/li3rSCPc4/b2fa2bduekv/vJ8QH3V4sFstqbGycnWzMN9xwQ29FRcWxIE1oC4F0ChBm06md4Fy2XIARZuL0CCBggYAKYdXV1YtycnLOOINtQ0PDwlOnTlWvWrXqyzpDkbaPHj363zs7Ox/Ozs5+65577vmyKWtpJWTv27evSZZWuMcmyy66urrm+QnxYbWXzH3y5Mm7/fRP5/pxDAJhCtiSpZiZDbMKaBsBBBAISEBmY2WdqDQ3ZsyY365du/YBWSqwf//+Z6ZPn76npqbmez5ONXDz2LFjxx6XJQayfCHVG8L27t372SlTphwJciZShU8Jhe6x9fT0FOfk5HT4CYtBt5fIWz4cNDQ0/GNvb++dlZWVf+13GYSPa6jz0qza2tovyIcA8cvOzr44bty45nHjxh0NYjZefE1bpiJIrhsnddycx2Q1NzeXBFjnWYONG7lmnTCbarmkeLwtFyDFYXI4AggYJiBh5uLFi3csXLhwj9+bk4YaippBldesWrVqnbQtAfLEiROrFi9e/BmvOxrU1dX92cGDB2tHjx79ZllZ2TdLS0uf83rsUP2Tr/1PnTq1OsWdBj5wCrWuN9l5x4wZc9pPWAy6PVe/smT9cltb28bBtc1/FeT1D6LMZTb7jTfeWCYffsSur68v5+rVqx+VGwuXLFlSmWoQlXXdiWbRh+q7BOBjx449lp+fv8/5npG+ynE+P6TFZD35iRMn1qgPEuqGP7Xe3I+j1MulS5fkJsNrf+LxeIm85yorK782bty4M37eO/Lei8fjZStXrtwkDcr7t7W19ZtyI6dO//yMRfe1tmQpZmZ1rzDHIYAAAgkE1JIACYv5+fnPyh34fn7h+USVWR1fMzoSHnp7e6f4CYFe++RcsiDHFBUVbZ01a9bTIY7fa9dCfZ0s9XjllVe+LSe59957H0s1FIbRWQlmO3bsOFtTU1PmnlWUUHX69Ok/9TLLLfWTrH/JloQMMZ6szZs3t+Tm5v6qp6fnNtl+TfVPJ8yqmXcJhtLe6NGjL2dnZ1++6aab3pAPGX52/ZA+qx1EkvW/oqLib/yEbefSGKmZ+vr6F6QN2SpPPggG8YEi6NohzAYt6rM9Wy6Az2HxcgQQsEMgq66ubllbW9sX5Be0fE2uc+e9c6hy974KGzLDk5+f3yQhUecGMDVDJ7NLErzUbK3saKC79tZ1WQbGf+LEiYdlCzDdtaMqnCS75H7bDbo9uQFs27ZtP5QgMhhsvu/3w0U6y1mWqiRaEy2z6qNGjfqdl2svs69D9dnPzKyEaFnqsm7duo+J5fbt2zfL2u0HH3xwwalTpxbIefyGRdmdQ9pT11qFY3n/5OXlHfTTnvRJZttlplftqKHzflNezjCrZqTVDYya/Qu9fGzJUszMhl4KnAABBKIsILOVr776ao38QhSHRNtMefFxfoUrv/jKy8u/JUHU7y9XNXMsywH6+/vH5+Xl1clXzRJmZDcDv7NXQ826SaCVPWFlXa6fkONo80O7BUhfZecFR4D0tVbYvftAKu2FEI69lIL2a+RDS1NT0z/l5uY2OhuRDxxqp4zhGlcfhNauXVvtDu5+lxmoWnTOcKpZbpmtlbW8fsKnuh6qhqWvcrz6sOZ3JlVZSJ8OHjz4z5MmTXpe1pa3tbX9pZdZbLel80OkLFdQQV45BPjeG+4yev53wqxnqnBeaMsFCGf0tIoAAiYJqK/fJSzq/kINKszKL9TB2atZEuzkq2H19WYQs0NqdwUZa9APZVChQnZdCOLr/ADas25rLrXMRNZujh49ujs3N7d98BHBXV5nlWUdakFBQb171wu/YVbeo9LW22+/XegKhwMz3n7DrLQns8z9/f23ONuTuu7r67slUQD38XPi2iy8328E1DnUhwn1sBP5e/mQN9QHBB/9C+WltmQpZmZDufw0igACUReQNYodHR0L1I4BqT6UIKgwq9bquWev1KyWbthWXxkHtTuCs37E8sUXX/yezCDq9i/M9myudQlYshxExqAz2+gcu7SluRb7Q2u/5Zq/9dZb0+69994mv77u3Qvkw2R/f3/3e++9NznV9czy/unr67tJlvnIzWGptidjk/7K/wbVnl+voV5PmA1SU6MtWy6AxtA4BAEEDBaQX0yHDh36unwNLjOTxcXFPwpix4CgwqzQyUyVO7zI38l2TevWrZvldYbOeRlkhi0nJ+d0EGN1tiuzVm1tbV+Vr8bvv//+L6Z6M1mQ7dm2zEC5So22tLQ8KktfZJYwlQ9a7rY0l5Ncu+QqXAf1wSVq7QX9o9GWLMXMbNBXnvYQQCDSAurGjlT3bXUjDnXjjc7Xnu7ZK5lxGvy6+ZzOBZTZr4qKinYVhNVa3mnTpv1bcXHxAZ0Q6gyLifaaveWWW1rVNkde+hx0e7Y9AcwZ7GTNtNztr3FT1AC1sy3ZuaO8vPyrS5cu3aHzQcgdiGU3gtLS0qd0Zz2j1p6X2td9DWFWVy6g42y5AAENl2YQQMAcAfem6gN3RPf399+caJ2h124PtSVSUI9NlVnLvLy8V3RChPOmNLWlkQQmtZuDzlfYQe8LG3R7ck2ampq+UVZW9v2g9xX2Whd+XicfiOSaqH2Jdba/Uvu4ynll67UxY8Z0et3Wy91X9YFH7XghO37IDiBqlw0/Y5PXRq09vz46r7clSzEzq3N1OQYBBBBIIuDcXUDC0549e/bLS+XpXfKVbip7Saq1da5ZzoGneQXxBCcJO7prUp1hVv5bZmSlTxJ+ZI9Pr3fL21RYcj2amprWynZS0m/ZV3jmzJn/T4BPhwqUQwVRuYEuPz9/l3zAkqUhfnYMkBqR5TNqiy+/u2k4B6Q+9JSVlW1Q+xE768jv4KPWnl8fndcTZnXUAjzGlgsQ4JBpCgEEDBBw/nKX//7FL37xlKxDlUdg1tfX75StsLzs5+keinMDd3XzlnPLILVf5UgROEOIrJ+dNGlSo9wMpL7a111LKcsXmpub18r43MsEdGZ7g25v0PtD++qmuq9wmNdRlgioPZAlmM6aNesJrzPLzgdjSCiWLbTcuwf46PsH9mOW5QXxePzuFHaqiFp7Pqj1XmpLlmJmVu/6chQCCCCQUCDRzOzgpvADN17prlHcuHHjuTFjxvy2qKhoe1NT03ZZQypfz8qs1sqVK//ez1pFtfetOk7+/yuvvPK/UglgMrZ4PF4lN2rJjWRy45vM+Kl+r1279gGdkpGN/uU4tRG+fK0vX0P/7Gc/+9cVK1bM9rsWN+j23GNS6zVlNlpnLbOOke4xzmAq183nh4MPBMdUH2Psfnpcqk/Pi1p7ujUw3HGE2eGEQv53Wy5AyAw0jwACaRZQs4fqBhsJnDIrKVtXSQitrq5e5N6f00sXB3czuF5Cq3xd3NnZuUJnBks91lRu2pHzyjPs5cEG2dnZF2V9q+4yCAkP77zzzhh5VG5vb+80tfZW+uo3bCsP1Vc1E+38oKB2T/DzFXnQ7bmvm/sBGYM3Rf3Yy/Ud4dcM7Jers1Za+u3cR1l3Bt4x/oGQLDWpPhClaBO19lLk+uDhtmQpZmYDvew0hgACCMSubaTf1dV1j3hI4JIlAfLfOkFWjnNuzeV8LKZfbwnVra2t35RHhvb09EyV58MPBtgjW7ZsqZ8+ffoePwHR7/n9vN69REHCaGdnZ6UsX5Bx+L3xKOj2BscS+KOL/RgZ9toP7RebYv9oL0XAVA8/dOjQkydPnlwr7YwfP/7A4sWL5clvxv0hzBp3SegQAggg8GGBoMKsegqRhFnZSmvr1q0/XbNmzZ+3t7fn7dq160hZWdk3TQmzaiY10Wyx8yYzr/USdHvqMaQyyy139qubmLz2h9chYLrA/v376y9evLhA+llYWLhl7ty5XzKxz4RZE68KfUIAAQRcAgHuM5u1cePGM+41kvIYUHnQQ01NTZlJd+Nv2bLlZ7Ifanl5+bfka3D1ZDVZsqGzQ0KQ7TlniilYBDJRwBlmZ8yY8fXKysonTBwnYdbEq0KfEEAAAZdAwPvMZjU0NCxwLnmQpQu5ubntussgQrxgWbL8QdbzqnOoJ6tpziAH3V6IQ6dpBEZWYM+ePYe7u7tnSy8IsyNwLWxZtDwCNJwSAQQQsE5AvtI/e/bs7ClTphwJYuY46PasA6XDCHgQeOaZZ95XL5szZ86KkpKSgUdhm/aHmVnTrgj9QQABBBBAAAEERlggHo+P3bdv3+9VN6qqqqpvv/32AyPcrYSnJ8yaeFXoEwIIIIAAAgggMIIC7e3tDx0+fHiX6sKSJUtuzs3N7R7BLiU9NWHWxKtCnxBAAAEEEEAAgREUcC7XvPHGG08sX768eAS7M+SpCbOmXhn6hQACCCCAAAIIjJCAcyeDadOmPX3fffd9boS6MuxpCbPDEvECBBBAAAEEEEAgOgLu9bJlZWWPV1RUPGmqAGHW1CtDvxBAAAEEEEAAgREQOHr06KOtra0/UqdetGjRjAkTJnSMQFc8nZIw64mJFyGAAAIIIIAAAtEQqK+vf66rq2u5jHbs2LFHli1bNsfkkRNmTb469A0BBBBAAAEEEEijwIULF4pfeOGF4+qUpi8xkH4SZtNYIJwKAQQQQAABBBAwWcC5i4H00/QlBoRZk6uJviGAAAIIIIAAAmkW2L17d8eVK1eK5LR5eXm7q6urH0pzF3yfjplZ32QcgAACCCCAAAIIZJ6A+0EJJj/C1qlPmM28WmREVBlrYwAADatJREFUCCCAAAIIIICAbwHnjV+mPyiBMOv78nIAAggggAACCCCQuQLuG79mzJjx9crKyidsGDEzszZcJfqIAAIIIIAAAgiEKGDjjV+KgzAbYmHQNAIIIIAAAgggYIOAjTd+EWZtqCz6iAACCCCAAAIIhCxg641fhNmQC4PmEUAAAQQQQAABGwRsvfGLMGtDddFHBBBAAAEEEEAgRIF4PD523759v1ensOnGL8JsiIVB0wgggAACCCCAgA0Czc3NX2pra/uu6qsNT/xyu3IDmA2VRh8RQAABBBBAAIEQBGy+8YuZ2RAKgiYRQAABBBBAAAFbBF577bUFjY2N9aq/tjzxi5lZWyqMfiKAAAIIIIAAAiEKvPTSSz86ffr0o3IKm574FZkw614DsmTJkptzc3O7Q6wJmkYAAQQQQAABBKwQyIQbvxR0xq6ZdT+WrbCwcMvcuXO/ZEWF0UkEEEAAAQQQQCBEgUy48Svjw6wMcM+ePYe7u7tnq8GWlZU9PnXq1L0TJkzoCLE+aBoBBBBAAAEEEDBaIBNu/IpEmO3s7Jz98ssv/3t/f3+us6JkXcjEiRP3jho1asSXHUgfCNhGv9/pHAIIIIAAAhklkCk3fkUizMogjx49+mhra+uPTK/CsWPHHpk1a9bn8/Pzj5jeV/qHAAIIIIAAAvYKZMqNX5EJszJQeebwyZMn/+rixYsLTC697OzseGlp6Vdmzpz5tMn9pG8IIIAAAgggYKdAJt34FakwqwYrF/Ctt95aePHixaqenp6ZJpRhooBt6z5vJnjSBwQQQAABBBBILpBJN35FMsyaWNwSsH/7298+cfLkybWqf+PHjz+wePHiahP7S58QQAABBBBAwF6BTLrxizBrWB2yL65hF4TuIIAAAgggkGECmXbjF2HWsAJ174vLUgPDLhDdQQABBBBAwHIB541fcp/Opz/96fGWD2mg+xn70AQbL45z6p+HPNh4BelzpgjIh0sZS1B7UketPVUHsj1i0Du0yNKsd999d2JQ10b1Va7R9ddffz7oJ0XKTNjtt99+wPT3RtDXKuj2xC+MNsNq18S+um/8yqScQZg16CfMoUOHnlRrZ1k3a9CFoSuREZDg8frrr/9fXV1dy2XQeXl5u2+77bb/rRtGotaemMkvzDfeeGP1yZMnP3/lypUimf0pKCj4fmFh4bOpBFAJB6+//vrnz58/v0z2DpefkVOnTt2Z6u4v7t1upk2b9vS0adN26l5zZXDixIkvnTlz5mExkL3Np06d+mxRUdGTQYflVN6cEuBPnjz58KlTp74gptLPwsLCH0yfPn2bTj+Dbk/GFkabYbVrel8z8cYvVf+E2VR+EgR8bFNT0xPHjx//O2mWMBswLs0hMIzA/v3765Nt36fzfoxae2qGK9GDahS97vIp5wd992VM5atS91MinW3rzlq51yS6+1tVVVWdSlAO6o0sIf7w4cO7ErUnpp/85Cc/7ufDR9DtSb/CaDOsdm3oq/PbX52faUHVXhjtEGbDUNVskzCrCcdhCKQoILN+DQ0Nh4dqZv78+XO8fmUetfaUm3M9XiJLeTjMsmXL5vi5XDLTe+DAgdfdT3J0tlFeXv45vzO0Q4UP1faiRYtm+Al0clx9ff1zamY/0Thltr+6uvohPwZhvHaoIC/nkxnq++6773Nezx10e3LeMNoMq13T++r+kKXznvFaCyPxOsLsSKgnOSdh1qCLQVciJeAMYWPGjInNmfOHvHX48OFYb2/vwH/7+eUetfbExx068/PzYyUlJbGurq7Yr3/962v15OdDgRzkfoqjXJsJEybEGhoarl0bnZDsnDmXa15VVRV7++23Y7/85S+v9XXGjBlfr6ysfMLrm8F9I+8dd9wRKyoqip04cSL26quvXmtGJyR77YOX17mDzV133SVLamQmVNalDjQhs7MLFiy4zctyg6Dbk/OH0WZY7drQ10y98UvVO2HWyzs/Ta8hzKYJmtMg4BBw3xTxiU98IlZYWDjwCgkgEmjVnyVLltw83C/3qLWnbNzr8VauXBm7/vrrY++//77MsGl9KJC2nV+NSjhUHzQuX74ce/7557VCsjt0Lly4cCAgu6+53yUM7uUQDz/8cOy6666Lvfvuu7GdO3de66vuEoag3rjuD1uf+tSnBpp297OsrOzxioqKJ4c7b9DtyfnCaDOsdk3vaybf+EWYHe7dOQL/TpgdAXROiUAsFvvJT35yUX2NLWFJQpP8kRlFNavoJ9hErT2xcs+gLl++PPaRj3wk5SDnnEGVwCnBU/6cPXs29vOf//xa/fqZ7RzqA4d8eFGzqHJD1PLlywd2tvDyJ1mg7+/vj/30pz+91oTXkOjlnDqvSRa6/+u//ks+PFxr0utX0UG3Jx0Io82w2jW9r5l84xdhVucnQMjHEGZDBqZ5BJIION978hL5ilz+qK9c5b/9fOUctfYUqzPEy9/J19evv/76tVlZ+Ts/oTNRSJZAK1+JO5cu6NzM4l7fKx9gZLb3woULvsOcOsC91EKWL0yZMmUgeKvlKn6+vg/rDeuemZZ+3nbbbR8w9RPkg25Pxh1Gm2G1a3pfM/nGL8JsWD8lUmiXMJsCHocikIKA+5dRoqb8hLCotae83CHe7ehn3bHzWOcv40TXRmeHgOFu0tMNncPdBKdrkEJ5Jzx0uBvV/Hx4kxME3V5YbYbVbhjjD6KvmX7jF2E26J8MAbRHmA0AkSYQ0BSQ95/ab9PZhISa4uLiv/eydtB5XNTaU7Ne//Ef/7E10RZncpPWrFmzPu91RwinpSxhOH78+Ndkz9agArK0I18Pnz179rPunRLkmpeWln7F7w4JyuDll1/+f7u7u2e7+yozyH/8x3+8xu8OCZolPeRhEuZbWlp+kKyfd9999/Lh1oc7TxB0e9J2GG2G1a6pfc30G78Is2H8dEixTcJsioAcjkCKAvI18blz5x6Szfmlqdtuu+0HkydPfs7PL3VnF6LWnhq7zEwfP3788xIUJ06cuEccdUKs+3LKdlqnT5/+b93d3R9LZXN/9zVSD3m48cYbTwXxIAYVmKSO4vH4vNzc3INBGaRY4h86XGbuTp8+vVIeRjFlypQfz5gx4wephO2g25MOh9FmWO2a1Nco3PhFmA36J0IA7RFmA0CkCQQQQAABBBCIReHGL8KsgYVOmDXwotAlBBBAAAEELBSIwo1fhFkDC5Mwa+BFoUsIIIAAAghYJhCVG78IswYWJmHWwItClxBAAAEEELBIQNbKvvTSS/+hbpj0s0e2RcP8QFd5AphBV869vsXL04YM6j5dQQABBBBAAIERFnA/xMHvNmsj3H2t0xNmtdjCOci9N+VIP/IwnFHSKgIIIIAAAgiEIeCeFJMt8ZYtWzYnjHOZ1CZh1qSrEYvJM8wPO/f9k8ceTp06dW8qW6UYNkS6gwACCCCAAAIBCsga2ePHj69z7vEsyws++clPfjwK+YEwG2AxBdGUbLz88ssv/7t7E295tODEiRP3jho1qjuI89AGAggggAACCNgrcPXq1bE9PT0zu7u7Z7kzg4xKJsP8PuzFVg3CrIFXTp5209ra+iMDu0aXEEAAAQQQQMBgAZn8Ki8v//ztt99+wOBuBto1wmygnME1Jk+6OXny5F8leixkcGehJQQQQAABBBDIBAFZVlBQUPD9oqKiJ3WfWmirA2HW8CsnW2y89dZbCy9evFglXycY3l26hwACCCCAAAJpEsjJyTkqyw8nTZr0/wXxyOg0dTvw0xBmAyelQQQQQAABBBBAAIF0CRBm0yXNeRBAAAEEEEAAAQQCFyDMBk5KgwgggAACCCCAAALpEiDMpkua8yCAAAIIIIAAAggELkCYDZyUBhFAAAEEEEAAAQTSJUCYTZc050EAAQQQQAABBBAIXIAwGzgpDSKAAAIIIIAAAgikS4Awmy5pzoMAAggggAACCCAQuABhNnBSGkQAAQQQQAABBBBIlwBhNl3SnAcBBBBAAAEEEEAgcAHCbOCkNIgAAggggAACCCCQLgHCbLqkOQ8CCCCAAAIIIIBA4AKE2cBJaRABBBBAAAEEEEAgXQKE2XRJcx4EEEAAAQQQQACBwAUIs4GT0iACCCCAAAIIIIBAugQIs+mS5jwIIIAAAggggAACgQsQZgMnpUEEEEAAAQQQQACBdAkQZtMlzXkQQAABBBBAAAEEAhcgzAZOSoMIIIAAAggggAAC6RIgzKZLmvMggAACCCCAAAIIBC5AmA2clAYRQAABBBBAAAEE0iVAmE2XNOdBAAEEEEAAAQQQCFyAMBs4KQ0igAACCCCAAAIIpEuAMJsuac6DAAIIIIAAAgggELgAYTZwUhpEAAEEEEAAAQQQSJcAYTZd0pwHAQQQQAABBBBAIHABwmzgpDSIAAIIIIAAAgggkC4Bwmy6pDkPAggggAACCCCAQOAChNnASWkQAQQQQAABBBBAIF0ChNl0SXMeBBBAAAEEEEAAgcAFCLOBk9IgAggggAACCCCAQLoECLPpkuY8CCCAAAIIIIAAAoELEGYDJ6VBBBBAAAEEEEAAgXQJEGbTJc15EEAAAQQQQAABBAIXIMwGTkqDCCCAAAIIIIAAAukSIMymS5rzIIAAAggggAACCAQuQJgNnJQGEUAAAQQQQAABBNIlQJhNlzTnQQABBBBAAAEEEAhc4P8H82ci6/E5ycwAAAAASUVORK5CYII=;" parent="1" vertex="1">
                    <mxGeometry x="80" y="210" width="311.63" height="230" as="geometry"/>
                </mxCell>
                <mxCell id="5" style="edgeStyle=none;html=1;exitX=0;exitY=0.5;exitDx=0;exitDy=0;exitPerimeter=0;rounded=0;endArrow=none;endFill=0;" parent="1" source="3" edge="1">
                    <mxGeometry relative="1" as="geometry">
                        <mxPoint x="231" y="237" as="targetPoint"/>
                        <Array as="points">
                            <mxPoint x="200" y="220"/>
                            <mxPoint x="231" y="220"/>
                        </Array>
                    </mxGeometry>
                </mxCell>
                <mxCell id="7" style="edgeStyle=none;rounded=0;html=1;exitX=1;exitY=0.5;exitDx=0;exitDy=0;exitPerimeter=0;endArrow=none;endFill=0;entryX=0;entryY=0.57;entryDx=0;entryDy=0;entryPerimeter=0;" parent="1" source="3" target="4" edge="1">
                    <mxGeometry relative="1" as="geometry">
                        <mxPoint x="360" y="100" as="targetPoint"/>
                        <Array as="points">
                            <mxPoint x="360" y="60"/>
                        </Array>
                    </mxGeometry>
                </mxCell>
                <mxCell id="3" value="" style="pointerEvents=1;verticalLabelPosition=bottom;shadow=0;dashed=0;align=center;html=1;verticalAlign=top;shape=mxgraph.electrical.resistors.resistor_2;" parent="1" vertex="1">
                    <mxGeometry x="200" y="50" width="100" height="20" as="geometry"/>
                </mxCell>
                <mxCell id="8" style="edgeStyle=none;rounded=0;html=1;exitX=1;exitY=0.57;exitDx=0;exitDy=0;exitPerimeter=0;endArrow=none;endFill=0;" parent="1" source="4" edge="1">
                    <mxGeometry relative="1" as="geometry">
                        <mxPoint x="222" y="236" as="targetPoint"/>
                        <Array as="points">
                            <mxPoint x="360" y="250"/>
                            <mxPoint x="222" y="250"/>
                        </Array>
                    </mxGeometry>
                </mxCell>
                <mxCell id="4" value="" style="verticalLabelPosition=bottom;shadow=0;dashed=0;align=center;html=1;verticalAlign=top;shape=mxgraph.electrical.opto_electronics.led_2;pointerEvents=1;rotation=90;" parent="1" vertex="1">
                    <mxGeometry x="315" y="124" width="100" height="70" as="geometry"/>
                </mxCell>
                <mxCell id="9" value="220&amp;nbsp;Ω" style="text;html=1;align=center;verticalAlign=middle;resizable=0;points=[];autosize=1;strokeColor=none;fillColor=none;" vertex="1" parent="1">
                    <mxGeometry x="220" y="75" width="60" height="30" as="geometry"/>
                </mxCell>
            </root>
        </mxGraphModel>
    </diagram>
</mxfile>